<svg
    xmlns="http://www.w3.org/2000/svg"
    viewBox="0 0 33 15"
    id="vector">
    <path
        id="path"
        d="M 8.352 14.358 C 9.202 14.373 9.937 14.101 10.471 13.567 C 11 13.038 11.281 12.303 11.283 11.436 L 11.293 8.726 C 11.465 8.675 11.632 8.618 11.796 8.566 C 12.028 8.489 12.247 8.415 12.449 8.367 C 14.528 7.899 16.735 7.791 19.203 8.039 C 20.418 8.178 21.349 8.386 22.19 8.702 C 22.159 9.376 22.166 10.037 22.169 10.677 C 22.168 10.918 22.172 11.162 22.171 11.403 C 22.167 13.206 23.332 14.371 25.136 14.367 L 27.48 14.362 C 27.746 14.361 28.021 14.361 28.287 14.369 C 28.811 14.376 29.356 14.379 29.893 14.357 C 30.722 14.351 31.439 14.07 31.965 13.545 C 32.489 13.02 32.779 12.294 32.798 11.452 C 32.798 11.444 32.798 11.444 32.798 11.435 L 32.792 8.502 C 32.794 7.403 32.44 6.421 31.733 5.577 C 30.586 4.222 29.05 3.427 28.004 2.949 C 25.434 1.774 22.658 1.08 19.245 0.774 C 15.12 0.418 11.083 0.917 7.246 2.261 C 5.789 2.783 3.915 3.552 2.345 4.934 C 2.25 5.02 2.151 5.11 2.065 5.196 C 1.071 6.19 0.592 7.381 0.645 8.742 C 0.649 8.755 0.645 8.767 0.649 8.78 C 0.695 9.274 0.681 9.776 0.671 10.309 C 0.662 10.669 0.657 11.043 0.664 11.421 C 0.68 12.288 0.97 13.026 1.497 13.553 C 2.028 14.084 2.766 14.366 3.629 14.36 L 8.352 14.358 Z"
        fill="#f55c74"
        stroke="#00000000"
        stroke-width="1"
        fill-rule="evenodd"/>
</svg>
