<svg
    xmlns="http://www.w3.org/2000/svg"
    viewBox="0 0 30 30"
    id="vector">
    <path
        id="path"
        d="M 23.066 18.303 C 22.486 17.686 21.786 17.356 21.044 17.356 C 20.308 17.356 19.602 17.68 18.998 18.297 L 17.107 20.221 C 16.951 20.136 16.796 20.056 16.646 19.977 C 16.431 19.867 16.227 19.763 16.054 19.653 C 14.283 18.504 12.673 17.008 11.13 15.071 C 10.382 14.106 9.879 13.293 9.514 12.468 C 10.005 12.01 10.459 11.534 10.902 11.075 C 11.07 10.904 11.237 10.727 11.405 10.556 C 12.661 9.273 12.661 7.611 11.405 6.328 L 9.771 4.66 C 9.586 4.471 9.394 4.275 9.215 4.08 C 8.856 3.701 8.479 3.31 8.09 2.943 C 7.51 2.357 6.816 2.046 6.085 2.046 C 5.356 2.046 4.649 2.357 4.051 2.943 C 4.045 2.95 4.045 2.95 4.039 2.956 L 2.005 5.051 C 1.239 5.833 0.802 6.786 0.706 7.892 C 0.563 9.676 1.077 11.338 1.472 12.425 C 2.442 15.095 3.89 17.57 6.05 20.221 C 8.67 23.416 11.824 25.94 15.426 27.718 C 16.802 28.383 18.639 29.172 20.691 29.306 C 20.817 29.312 20.948 29.318 21.068 29.318 C 22.45 29.318 23.611 28.811 24.52 27.803 C 24.526 27.791 24.538 27.785 24.544 27.773 C 24.855 27.388 25.214 27.039 25.591 26.667 C 25.849 26.416 26.112 26.154 26.369 25.878 C 26.962 25.249 27.273 24.516 27.273 23.765 C 27.273 23.007 26.956 22.28 26.351 21.669 L 23.066 18.303 Z"
        fill="#0ea54d"
        stroke="#00000000"
        stroke-width="1"
        fill-rule="evenodd"/>
    <path
        id="path_1"
        d="M 16.372 7.117 C 17.998 7.39 19.475 8.16 20.655 9.339 C 21.834 10.519 22.598 11.996 22.877 13.623 C 22.945 14.033 23.299 14.318 23.703 14.318 C 23.752 14.318 23.796 14.312 23.845 14.306 C 24.305 14.231 24.609 13.797 24.534 13.337 C 24.199 11.369 23.268 9.575 21.846 8.154 C 20.425 6.732 18.631 5.801 16.663 5.466 C 16.204 5.391 15.776 5.696 15.695 6.149 C 15.614 6.602 15.912 7.043 16.372 7.117 Z"
        fill="#0ea54d"
        stroke="#00000000"
        stroke-width="1"
        fill-rule="evenodd"/>
    <path
        id="path_2"
        d="M 29.306 13.371 C 28.765 10.202 27.273 7.318 24.978 5.023 C 22.684 2.728 19.802 1.235 16.634 0.694 C 16.19 0.615 15.772 0.919 15.693 1.362 C 15.62 1.811 15.917 2.23 16.366 2.309 C 19.195 2.789 21.774 4.131 23.825 6.177 C 25.877 8.229 27.212 10.809 27.691 13.638 C 27.758 14.039 28.104 14.318 28.498 14.318 C 28.547 14.318 28.59 14.312 28.638 14.306 C 29.081 14.239 29.385 13.814 29.306 13.371 Z"
        fill="#0ea54d"
        stroke="#00000000"
        stroke-width="1"
        fill-rule="evenodd"/>
</svg>
