<svg
    xmlns="http://www.w3.org/2000/svg"
    viewBox="0 0 30 36"
    id="vector">
    <path
        id="path"
        d="M 7.862 2.22 C 10.05 0.428 12.939 -0.334 15.759 0.136 C 20.48 0.99 23.883 5.02 23.823 9.685 L 23.823 9.856 C 23.823 10.566 23.231 11.142 22.5 11.142 C 21.769 11.142 21.177 10.566 21.177 9.856 L 21.177 9.856 L 21.177 9.428 C 21.176 7.431 20.28 5.534 18.723 4.231 C 17.165 2.929 15.1 2.35 13.068 2.647 C 9.562 3.218 7.01 6.189 7.059 9.642 L 7.059 9.642 L 7.059 13.713 L 27.353 13.713 C 28.815 13.713 30 14.865 30 16.285 L 30 16.285 L 30 33.428 C 30 34.849 28.815 36 27.353 36 L 27.353 36 L 2.647 36 C 1.185 36 0 34.849 0 33.428 L 0 33.428 L 0 16.285 C 0 14.865 1.185 13.713 2.647 13.713 L 2.647 13.713 L 4.412 13.713 L 4.412 9.428 C 4.412 6.648 5.675 4.011 7.862 2.22 Z"
        fill="#007aff"
        stroke="#00000000"
        stroke-width="1"
        fill-rule="evenodd"/>
    <path
        id="path_1"
        d="M 15 21 C 17.209 21 19 22.791 19 25 C 19 27.209 17.209 29 15 29 C 12.793 28.995 11.005 27.207 11 25 C 11 22.791 12.791 21 15 21 Z M 15 23.4 C 14.116 23.4 13.4 24.116 13.4 25 C 13.4 25.884 14.116 26.6 15 26.6 C 15.884 26.6 16.6 25.884 16.6 25 C 16.6 24.116 15.884 23.4 15 23.4 Z"
        fill="#ffffff"
        stroke="#00000000"
        stroke-width="1"
        fill-rule="evenodd"/>
</svg>
